<?xml version="1.0" encoding="UTF-8"?>
<svg id="Capa_2" data-name="Capa 2" xmlns="http://www.w3.org/2000/svg" viewBox="0 0 166.24 166.24">
  <defs>
    <style>
      .cls-1 {
        fill: #fff;
        stroke: #fff;
        stroke-miterlimit: 10;
      }
    </style>
  </defs>
  <g id="Capa_1-2" data-name="Capa 1">
    <g>
      <path class="cls-1" d="M106.45,113.89c9.47,47.37-71.09,34.96-96.64,42.34,7.63-29.51-2.97-113.35,52.24-94.18C-.68,37.9,9.19,131.54.7,165.35c29.66-8.84,117.62,2.29,105.76-51.46Z"/>
      <path class="cls-1" d="M113.89,59.79c47.37-9.47,34.96,71.09,42.34,96.64-29.51-7.63-113.35,2.97-94.18-52.24-24.15,62.73,69.49,52.87,103.3,61.36-8.84-29.66,2.29-117.62-51.46-105.75Z"/>
      <path class="cls-1" d="M52.35,106.45C4.98,115.92,17.4,35.36,10.01,9.82c29.51,7.63,113.36-2.97,94.18,52.24C128.34-.68,34.7,9.19.89.7,9.73,30.36-1.4,118.32,52.35,106.45Z"/>
      <path class="cls-1" d="M59.79,52.36C50.32,4.98,130.88,17.4,156.43,10.01c-7.63,29.51,2.97,113.36-52.24,94.18,62.73,24.15,52.87-69.49,61.36-103.3-29.66,8.84-117.62-2.29-105.76,51.46Z"/>
    </g>
  </g>
</svg>