<?xml version="1.0" encoding="UTF-8"?>
<svg id="Capa_2" data-name="Capa 2" xmlns="http://www.w3.org/2000/svg" viewBox="0 0 63.11 63.11">
  <defs>
    <style>
      .cls-1 {
        fill: #58b3d2;
        stroke-width: 0px;
      }
    </style>
  </defs>
  <g id="Capa_1-2" data-name="Capa 1">
    <path class="cls-1" d="M40.49,43.33c3.63,18.14-27.22,13.38-37,16.21,2.92-11.3-1.14-43.4,20-36.05C-.53,14.24,3.25,50.09,0,63.04c11.35-3.38,45.03.88,40.49-19.7Z"/>
    <path class="cls-1" d="M43.33,22.62c18.14-3.63,13.38,27.22,16.21,37-11.3-2.92-43.4,1.14-36.05-20-9.25,24.02,26.6,20.24,39.55,23.49-3.38-11.35.88-45.03-19.7-40.49Z"/>
    <path class="cls-1" d="M19.78,40.49C1.64,44.11,6.39,13.27,3.57,3.49c11.3,2.92,43.4-1.14,36.05,20C48.87-.53,13.02,3.25.07,0c3.38,11.35-.88,45.03,19.7,40.49Z"/>
    <path class="cls-1" d="M22.62,19.78C19,1.64,49.84,6.39,59.62,3.57c-2.92,11.3,1.14,43.4-20,36.05C63.64,48.87,59.86,13.02,63.11.07c-11.35,3.38-45.03-.88-40.49,19.7Z"/>
  </g>
</svg>